<svg xmlns="http://www.w3.org/2000/svg" version="1.1" viewBox="0 0 32 32">
    <title>black</title>
    <g>
        <circle cx="16" cy="16" fill="#BAB1AB" r="16"/>
        <path fill="#0D0F0F" d="m29.71,15.69c0,1.88 -0.68,3.16 -2.05,3.84c-0.4,0.2 -1.65,0.47 -3.76,0.81c-1.37,0.23 -2.05,0.76 -2.05,1.58l0,3.45c0,0.14 0.04,0.58 0.13,1.33l0.13,1.37c0,0.42 -0.11,1.12 -0.31,2.09c-0.54,0.12 -1.16,0.24 -1.88,0.39c-0.22,-0.85 -0.34,-1.44 -0.34,-1.75c0,-0.14 0.04,-0.35 0.11,-0.64c0.07,-0.29 0.11,-0.49 0.11,-0.64c0,-0.2 -0.17,-0.76 -0.53,-1.66l-0.66,0c-0.09,0.13 -0.12,0.32 -0.09,0.55c0.12,0.49 0.15,0.9 0.13,1.24c-0.49,0.34 -1.15,0.8 -2.01,1.37c-0.2,-0.05 -0.27,-0.08 -0.22,-0.08l0,-3.04c-0.05,-0.13 -0.2,-0.2 -0.42,-0.17l-0.51,0l-0.51,4.02c-0.4,0.03 -0.88,0.03 -1.45,0c-0.21,-0.94 -0.56,-2.34 -1.07,-4.19l-0.34,0c-0.31,1 -0.49,1.54 -0.51,1.63c0,0.12 0.04,0.33 0.11,0.66c0.07,0.33 0.11,0.55 0.11,0.67c0,0.08 -0.04,0.3 -0.09,0.64l-0.13,1.03c-0.06,0.05 -0.13,0.09 -0.22,0.09c-0.85,0 -1.42,-0.22 -1.71,-0.65c-0.28,-0.42 -0.4,-1.03 -0.34,-1.79l0.34,-5.13c0,-0.08 0.03,-0.2 0.09,-0.34c0.05,-0.13 0.08,-0.24 0.08,-0.3c0,-0.22 -0.24,-0.68 -0.73,-1.37c-0.08,-0.03 -0.52,-0.13 -1.32,-0.3c-0.49,-0.12 -1.44,-0.31 -2.86,-0.6c-1.96,-0.37 -2.94,-1.94 -2.94,-4.74c0,-4.16 1.71,-7.61 5.12,-10.37c0.14,0.76 0.39,1.79 0.73,3.08c0.26,0.05 0.81,0.18 1.66,0.38c0.17,0.06 1.04,0.38 2.61,0.94c-0.8,-0.49 -1.83,-1.27 -3.12,-2.35c-0.48,-0.57 -0.72,-1.52 -0.72,-2.86c0,-0.31 0.54,-0.68 1.62,-1.12c0.97,-0.4 1.69,-0.62 2.18,-0.68c1.54,-0.2 2.72,-0.3 3.54,-0.3c3.56,0 6.43,0.91 8.63,2.73c-0.71,0.83 -1.93,1.71 -3.67,2.64c0.68,0.03 1.68,-0.24 2.99,-0.81c1.31,-0.57 1.87,-0.85 1.66,-0.85c0.23,0 0.68,0.46 1.37,1.37c0.51,0.68 0.93,1.3 1.24,1.83c0.91,1.62 1.52,3.37 1.83,5.25c0,0.66 0.02,1.12 0.04,1.41l0,0.34l0,0zm-16.36,0.76c0,-1.22 -0.53,-2.38 -1.6,-3.48s-2.21,-1.65 -3.44,-1.65c-1.08,0 -2.03,0.46 -2.86,1.38s-1.24,1.93 -1.24,3.06c0,0.97 0.48,1.6 1.41,1.89c0.6,0.17 1.44,0.27 2.52,0.3l2.35,0c1.91,0.03 2.86,-0.47 2.86,-1.49zm4.66,5.3l0,-1.32c-0.2,-0.37 -0.4,-0.76 -0.6,-1.16c-0.17,-0.57 -0.48,-1.36 -0.94,-2.38l-0.47,4.99c0,0.4 -0.09,0.6 -0.26,0.6c-0.11,0 -0.2,-0.03 -0.25,-0.09c-0.21,-3.01 -0.31,-4.33 -0.31,-3.93l0,-1.49c-0.05,-0.08 -0.13,-0.13 -0.21,-0.13c-0.97,1 -1.46,2.61 -1.46,4.82c0,1.22 0.12,1.98 0.34,2.27c0.22,-0.05 0.49,-0.15 0.77,-0.3c0.11,-0.06 0.44,-0.09 0.98,-0.09c0.54,0 1.2,0.17 1.96,0.51c0.29,0 0.43,-0.76 0.43,-2.3zm9.65,-5.95c0,-1.14 -0.43,-2.17 -1.29,-3.07s-1.83,-1.36 -2.94,-1.36c-1.2,0 -2.31,0.55 -3.35,1.65s-1.56,2.24 -1.56,3.44c0,1 0.49,1.49 1.45,1.49l4.91,0c1.85,-0.03 2.78,-0.74 2.78,-2.15z"/>
    </g>
</svg>