<svg xmlns="http://www.w3.org/2000/svg" version="1.1" viewBox="0 0 32 32">
    <title>blue</title>
    <g>
        <circle cx="16" cy="16" fill="#C1D7E9" r="16"/>
        <path fill="#0D0F0F" d="m22.78,28.46c-1.79,1.82 -3.99,2.73 -6.61,2.73c-2.94,0 -5.27,-1.01 -6.99,-3.02c-1.64,-1.92 -2.44,-4.36 -2.44,-7.33c0,-3.19 1.39,-6.83 4.16,-10.92c2.26,-3.35 4.93,-6.29 8,-8.81c-0.45,2.04 -0.67,3.5 -0.67,4.36c0,1.97 0.62,3.91 1.86,5.79c1.53,2.24 2.7,3.9 3.5,4.98c1.25,1.89 1.87,3.72 1.87,5.51c0,2.65 -0.89,4.89 -2.68,6.7zm-0.05,-10.22c-0.48,-1.07 -1.04,-1.79 -1.68,-2.13c0.1,0.19 0.15,0.46 0.15,0.82c0,0.67 -0.2,1.63 -0.57,2.87l-0.63,1.92c0,1.12 0.56,1.67 1.68,1.67c1.17,0 1.77,-0.78 1.77,-2.34c0,-0.8 -0.23,-1.73 -0.71,-2.8z"/>
    </g>
</svg>