<svg xmlns="http://www.w3.org/2000/svg" version="1.1" viewBox="0 0 32 32">
    <title>green</title>
    <g>
        <circle cx="16" cy="16" fill="#A3C095" r="16"/>
        <path fill="#000" d="m30.23,18.06c0,0.55 -0.21,1.05 -0.64,1.49s-0.92,0.66 -1.47,0.66c-0.88,0 -1.53,-0.41 -1.94,-1.24l-1.95,-0.08c-0.41,0 -1.22,0.17 -2.44,0.53c-1.3,0.36 -2.04,0.65 -2.24,0.87c-0.3,0.33 -0.55,1.1 -0.75,2.32c-0.17,0.99 -0.25,1.72 -0.25,2.19c0,0.75 0.11,1.3 0.35,1.64s0.72,0.64 1.45,0.87c0.74,0.23 1.19,0.37 1.35,0.4c0.11,0 0.29,-0.02 0.53,-0.05l0.5,0c0.36,0 0.74,0.06 1.12,0.17c0.55,0.17 0.78,0.39 0.7,0.66c-0.39,-0.06 -1.06,0.03 -2.03,0.25l1.16,0.58c0,0.33 -0.47,0.5 -1.41,0.5c-0.25,0 -0.59,-0.06 -1.02,-0.17c-0.42,-0.11 -0.71,-0.17 -0.85,-0.17l-0.53,0c-0.03,0.28 -0.11,0.69 -0.25,1.24c-0.47,-0.03 -1.02,-0.3 -1.66,-0.83s-1.04,-0.78 -1.21,-0.78c-0.17,0 -0.41,0.26 -0.7,0.78c-0.31,0.52 -0.46,0.88 -0.46,1.08c-0.36,-0.19 -0.66,-0.55 -0.91,-1.08c-0.11,-0.36 -0.24,-0.72 -0.37,-1.08c-0.28,0.03 -0.79,0.61 -1.54,1.74l-0.21,0c-0.06,-0.08 -0.26,-0.66 -0.62,-1.74c-0.86,-0.28 -1.66,-0.41 -2.4,-0.41c-0.36,0 -0.91,0.08 -1.66,0.25l-1.16,-0.08c0.17,-0.17 0.64,-0.48 1.45,-0.95c0.94,-0.55 1.66,-0.83 2.15,-0.83c0.08,0 0.19,0.01 0.33,0.04c0.14,0.03 0.25,0.05 0.33,0.05c0.19,0 0.51,-0.1 0.94,-0.31c0.42,-0.2 0.67,-0.4 0.74,-0.56c0.07,-0.17 0.11,-0.59 0.11,-1.28c0,-1.57 -0.41,-2.75 -1.24,-3.53c-0.72,-0.69 -1.91,-1.19 -3.56,-1.49c-0.44,1.57 -1.68,2.37 -3.73,2.37c-0.67,0 -1.33,-0.41 -1.99,-1.21s-0.99,-1.53 -0.99,-2.19c0,-1.02 0.42,-1.87 1.28,-2.53c-0.69,-0.72 -1.03,-1.45 -1.03,-2.19c0,-0.7 0.21,-1.3 0.64,-1.83c0.43,-0.52 0.99,-0.83 1.68,-0.91c-0.06,-0.88 0.23,-1.49 0.87,-1.82c-0.3,-0.3 -0.45,-0.84 -0.45,-1.61c0,-0.91 0.3,-1.68 0.91,-2.28s1.36,-0.91 2.27,-0.91c0.99,0 1.81,0.35 2.45,1.04c0.8,-2.73 2.52,-4.11 5.17,-4.11c1.38,0 2.6,0.55 3.65,1.66c0.39,0.41 0.58,0.64 0.58,0.66c-0.33,0 -0.17,-0.06 0.5,-0.18s1.15,-0.18 1.45,-0.18c1.08,0 2.03,0.4 2.85,1.2c0.72,0.72 1.22,1.63 1.5,2.73c0.18,0.03 0.5,0.11 0.91,0.25c0.6,0.3 0.91,0.83 0.91,1.57c0,0.14 -0.12,0.41 -0.33,0.79c1.77,0.99 2.65,2.37 2.65,4.14c0,0.5 -0.19,1.19 -0.58,2.07c0.72,0.41 1.08,1.02 1.08,1.82zm-17.07,1.82l0,-0.54c0,-0.64 -0.31,-1.22 -0.94,-1.74s-1.24,-0.78 -1.88,-0.78c-0.77,0 -1.49,0.17 -2.16,0.53c1.47,-0.08 3.13,0.76 4.97,2.53l0.01,0zm-0.75,-5.14c-0.41,-0.47 -0.77,-0.96 -1.08,-1.45c-1.16,0.3 -1.74,0.65 -1.74,1.03c0.33,-0.02 0.81,0.04 1.45,0.19s1.1,0.23 1.37,0.23zm2.52,-1.29l0,-1.82c-0.66,-0.11 -1.06,-0.17 -1.2,-0.17l0,0.63l1.2,1.36zm5.39,-1.16c-0.33,-0.14 -0.95,-0.41 -1.86,-0.83l0,3.56c1.3,-0.75 1.91,-1.66 1.86,-2.73zm2.28,4.89l-0.91,-1.11c-0.55,0.39 -1.11,0.77 -1.68,1.18s-1.05,0.85 -1.46,1.34c1.24,-0.66 2.6,-1.13 4.06,-1.41z"/>
    </g>
</svg>