<svg xmlns="http://www.w3.org/2000/svg" version="1.1" viewBox="0 0 32 32">
    <title>red</title>
    <g>
        <circle cx="16" cy="16" fill="#E49977" r="16"/>
        <path d="m29.61,21.51c-1.26,2.99 -3.74,4.48 -7.47,4.48c-0.68,0 -1.42,0.08 -2.22,0.25c-1.19,0.26 -1.79,0.61 -1.79,1.07c0,0.14 0.1,0.31 0.3,0.49c0.2,0.18 0.38,0.27 0.51,0.27c-0.71,0 -0.22,0.03 1.46,0.07s2.72,0.06 3.16,0.06c-2.47,1.45 -6.62,2.11 -12.42,2.01c-1.91,-0.03 -3.54,-0.87 -4.91,-2.52c-1.34,-1.56 -2.01,-3.32 -2.01,-5.25c0,-2.05 0.69,-3.79 2.07,-5.22c1.38,-1.44 3.09,-2.16 5.14,-2.16c0.46,0 1.06,0.1 1.82,0.3s1.26,0.3 1.51,0.3c1.05,0 2.36,-0.43 3.93,-1.29s2.3,-1.3 2.22,-1.3c-0.29,2.99 -1.29,4.99 -2.99,6.02c-1.22,0.71 -1.83,1.4 -1.83,2.09c0,0.43 0.26,0.77 0.77,1.03c0.4,0.21 0.84,0.31 1.32,0.31c0.74,0 1.47,-0.46 2.18,-1.37c0.71,-0.91 1.03,-1.74 0.94,-2.47c-0.08,-0.85 -0.03,-1.88 0.17,-3.08c0.06,-0.34 0.27,-0.76 0.62,-1.26s0.67,-0.8 0.96,-0.92c0,0.25 -0.09,0.68 -0.28,1.28s-0.28,1.04 -0.28,1.32c0,0.63 0.17,1.11 0.51,1.46c0.51,-0.21 0.96,-0.85 1.37,-1.92c0.34,-0.83 0.54,-1.62 0.59,-2.39c-1.2,-0.05 -2.34,-0.59 -3.43,-1.62s-1.64,-2.13 -1.64,-3.33c0,-0.2 0.03,-0.4 0.08,-0.6c0.17,0.26 0.43,0.66 0.76,1.2c0.49,0.71 0.85,1.07 1.11,1.07c0.34,0 0.51,-0.36 0.51,-1.07c0,-0.91 -0.24,-1.74 -0.73,-2.47c-0.54,-0.88 -1.24,-1.32 -2.09,-1.32c-0.4,0 -1,0.22 -1.8,0.64c-0.79,0.42 -1.52,0.64 -2.18,0.64c-0.2,0 -1.08,-0.25 -2.64,-0.76c2.76,-0.46 4.14,-0.87 4.14,-1.24c0,-0.96 -1.89,-1.62 -5.67,-1.96c-0.37,-0.03 -1.05,-0.09 -2.05,-0.17c0.12,-0.14 0.93,-0.3 2.44,-0.47c1.28,-0.14 2.18,-0.22 2.69,-0.22c6.77,0 11.07,3.28 12.89,9.85c0.31,-0.26 0.47,-0.69 0.47,-1.29c0,-0.78 -0.22,-1.76 -0.68,-2.94c-0.17,-0.47 -0.44,-1.16 -0.81,-2.08c2.34,2.97 3.5,5.79 3.5,8.44c0,1.4 -0.32,2.67 -0.98,3.82c-0.42,0.77 -1.22,1.75 -2.38,2.96c-1.17,1.2 -1.97,2.12 -2.39,2.78c1.56,-0.42 2.59,-0.75 3.08,-0.98c1.08,-0.48 2.06,-1.2 2.94,-2.18c0,0.38 -0.15,0.93 -0.47,1.67zm-18.6,-16.77c0,0.5 -0.29,0.84 -0.85,0.98l-1.11,0.17c-0.4,0.2 -0.98,0.98 -1.74,2.35c-0.09,-0.43 -0.22,-1.03 -0.39,-1.8c-0.25,0.04 -0.68,0.26 -1.28,0.68c-0.26,0.2 -0.67,0.5 -1.24,0.9c0.17,-1.03 0.74,-2.06 1.71,-3.12c1.03,-1.16 2.02,-1.74 2.99,-1.74c1.28,0 1.92,0.53 1.92,1.58zm7.42,3.92c0,0.49 -0.26,0.89 -0.78,1.22s-1.05,0.49 -1.56,0.49c-0.68,0 -1.29,-0.39 -1.83,-1.15c-0.65,-0.94 -1.32,-1.56 -2.01,-1.83c0.14,-0.14 0.31,-0.22 0.51,-0.22c0.26,0 0.69,0.2 1.3,0.59s1.01,0.6 1.18,0.6c0.13,0 0.38,-0.2 0.7,-0.6s0.69,-0.59 1.09,-0.59c0.94,0 1.41,0.49 1.41,1.49l-0.01,0z" fill="#000"/>
    </g>
</svg>