<svg xmlns="http://www.w3.org/2000/svg" version="1.1" viewBox="0 0 32 32">
    <title>white</title>
    <g>
        <circle fill="#F8F6D8" cx="16" cy="16" r="16"/>
        <path d="m31.21,18.14c-2.07,-1.18 -3.41,-1.76 -4,-1.76c-0.42,0 -0.75,0.32 -1,0.98s-0.72,0.98 -1.43,0.98c-0.29,0 -0.89,-0.1 -1.8,-0.32c-0.5,0.78 -0.76,1.27 -0.76,1.48c0,0.29 0.22,0.64 0.66,1.04s0.81,0.6 1.1,0.6c0.19,0 0.46,-0.05 0.78,-0.12c0.32,-0.08 0.54,-0.12 0.66,-0.12c0.32,0 0.49,0.61 0.49,1.8c0,1.15 -0.27,2.91 -0.81,5.28c-0.69,-2.73 -1.42,-4.08 -2.19,-4.08c-0.1,0 -0.33,0.09 -0.66,0.25c-0.33,0.15 -0.58,0.24 -0.74,0.24c-0.77,0 -1.46,-0.71 -2.07,-2.12c-1.23,0.18 -1.84,0.81 -1.84,1.88c0,0.53 0.25,0.96 0.74,1.27c0.49,0.32 0.74,0.55 0.74,0.68c0,0.72 -1.05,1.82 -3.16,3.31c-1.12,0.81 -1.89,1.37 -2.32,1.68c0.37,-0.47 0.74,-1.1 1.12,-1.88c0.43,-0.87 0.64,-1.56 0.64,-2.03c0,-0.27 -0.3,-0.65 -0.92,-1.12s-0.92,-0.99 -0.92,-1.52c0,-0.46 0.16,-1.02 0.48,-1.68c-0.35,-0.4 -0.76,-0.6 -1.24,-0.6c-1.06,0 -1.6,0.34 -1.6,1.04c0,-0.47 0,-0.11 0,1.08c0.03,0.88 -0.64,1.32 -2,1.32c-1.04,0 -2.78,-0.24 -5.23,-0.72c2.77,-0.69 4.16,-1.49 4.16,-2.39c0,0.1 -0.06,-0.22 -0.16,-0.96c-0.1,-0.83 0.48,-1.58 1.76,-2.24c-0.24,-1.23 -0.87,-1.84 -1.92,-1.84c-0.16,0 -0.46,0.28 -0.87,0.84c-0.43,0.56 -0.83,0.85 -1.21,0.85c-0.64,0 -1.46,-0.69 -2.48,-2.08c-0.47,-0.69 -1.21,-1.72 -2.19,-3.08c0.61,0.31 1.23,0.64 1.83,0.96c0.81,0.37 1.44,0.56 1.93,0.56c0.37,0 0.73,-0.33 1.09,-0.99s0.84,-0.98 1.42,-0.98c0.08,0 0.61,0.16 1.6,0.48c0.51,-0.78 0.76,-1.35 0.76,-1.72c0,-0.32 -0.19,-0.69 -0.58,-1.1s-0.74,-0.62 -1.05,-0.62c-0.14,0 -0.34,0.04 -0.63,0.11c-0.28,0.09 -0.48,0.12 -0.62,0.12c-0.48,0 -0.72,-0.6 -0.72,-1.79c0,-0.32 0.31,-2.15 0.92,-5.48c-0.03,0.4 0.15,1.14 0.52,2.23c0.46,1.34 0.99,2 1.6,2c0.1,0 0.32,-0.08 0.65,-0.24s0.57,-0.25 0.76,-0.25c0.61,0 1.11,0.35 1.52,1.04l0.6,1.08c0.56,0 1.03,-0.2 1.4,-0.61s0.56,-0.87 0.56,-1.43c0,-0.59 -0.25,-1.04 -0.74,-1.34s-0.74,-0.54 -0.74,-0.7c0,-0.56 0.88,-1.51 2.64,-2.84c1.42,-1.06 2.34,-1.69 2.76,-1.88c-1.15,1.55 -1.72,2.68 -1.72,3.4c0,0.37 0.22,0.78 0.67,1.2c0.56,0.51 0.88,0.87 0.96,1.08c0.27,0.62 0.24,1.45 -0.08,2.52c0.72,0.51 1.26,0.76 1.64,0.76c0.77,0 1.16,-0.4 1.16,-1.2c0,-0.08 -0.04,-0.33 -0.1,-0.76c-0.07,-0.43 -0.09,-0.66 -0.06,-0.72c0.1,-0.37 0.84,-0.56 2.19,-0.56c0.85,0 2.63,0.25 5.32,0.72c-0.58,0.16 -1.46,0.4 -2.64,0.72c-1.06,0.32 -1.6,0.68 -1.6,1.08c0,0.18 0.07,0.5 0.2,0.96s0.2,0.78 0.2,1c0,0.37 -0.24,0.72 -0.72,1.04l-1.36,0.96c0.32,0.59 0.53,0.94 0.65,1.04c0.27,0.31 0.62,0.47 1.07,0.47c0.32,0 0.62,-0.28 0.88,-0.84s0.69,-0.84 1.28,-0.84c0.71,0 1.53,0.66 2.43,1.99c0.51,0.75 1.29,1.88 2.36,3.4l-0.01,0zm-8.87,-2.32c0,-1.71 -0.63,-3.19 -1.88,-4.44s-2.74,-1.88 -4.44,-1.88c-1.74,0 -3.23,0.63 -4.48,1.86s-1.89,2.73 -1.92,4.46c-0.03,1.7 0.61,3.17 1.9,4.42c1.29,1.23 2.79,1.86 4.49,1.86c1.81,0 3.33,-0.6 4.54,-1.79c1.22,-1.19 1.8,-2.68 1.79,-4.49zm-0.6,0c0,1.62 -0.55,2.97 -1.64,4.04c-1.09,1.06 -2.45,1.6 -4.07,1.6c-1.58,0 -2.93,-0.54 -4.05,-1.63c-1.12,-1.09 -1.68,-2.43 -1.68,-4c0,-1.55 0.57,-2.88 1.7,-3.98c1.14,-1.11 2.48,-1.66 4.02,-1.66s2.89,0.56 4.03,1.68c1.13,1.12 1.7,2.44 1.7,3.96z" fill="#0D0F0F"/>
    </g>
</svg>
